<?xml version="1.0" encoding="utf-8" ?>
<svg xmlns="http://www.w3.org/2000/svg" width="117" height="122">
	<path fill="#89CFF9" transform="scale(0.228516 0.239236)" d="M481.901 423.523C483.002 423.481 483.985 423.393 485.048 423.751L482.068 427.435C481.35 426.076 481.145 424.92 481.901 423.523Z"/>
	<path fill="#89CFF9" transform="scale(0.228516 0.239236)" d="M15.7728 219.38L16.4414 219.9C16.8651 220.023 16.6748 219.916 17.0078 220.226L17.0278 244.079C15.4682 241.719 16.451 244.729 15.7796 246.891L15.7728 219.38Z"/>
	<path fill="#19B3FB" transform="scale(0.228516 0.239236)" d="M15.8404 246.891C16.451 244.729 15.4682 241.719 16.982 244.079L17.1653 266.575C16.6327 263.245 16.7381 259.019 16.9784 255.609L16.1673 255.375C16.1459 258.497 16.1493 263.259 15.3473 266.075L15.276 266.317L15.8404 246.891Z"/>
	<path fill="#19B3FB" transform="scale(0.228516 0.239236)" d="M495.48 269.976L495.392 269.587C495.154 267.774 495.313 263.035 496.529 261.654L504.016 315.437C505.123 324.624 505.528 333.908 505.529 343.152L505.256 357.713C503.82 379.933 498.202 405.397 485.048 423.751C483.985 423.393 483.002 423.481 481.901 423.523C479.807 422.878 474.408 420.968 474.958 418.091L482.88 420.587C490.654 413.195 498.224 386.245 500.395 376.201L502.008 367.691C504.235 352.447 504.176 332.36 502.328 317.236L496.776 281C496.425 277.334 496.394 273.558 495.48 269.976Z"/>
	<path fill="#60EFFF" transform="scale(0.228516 0.239236)" d="M221.546 422.731C225.787 422.279 230.114 422.442 234.366 422.436L260.798 422.372C264.251 422.315 267.674 421.61 271.066 421.534L321.375 421.631L364.375 425.018C386.605 427.909 407.305 432.215 429.834 432.26C446.35 432.293 462.237 432.111 473.644 417.994L474.958 418.091C474.408 420.968 479.807 422.878 481.901 423.523C481.145 424.92 481.35 426.076 482.068 427.435L482.058 427.469C466.078 449.344 434.817 452.332 410.103 452.296C404.609 452.288 399.096 452.339 393.616 451.886L328.102 444.064L257.485 431.125C249.367 429.524 228.065 427.156 221.678 423.786L221.546 422.731Z"/>
	<path fill="white" transform="scale(0.228516 0.239236)" d="M15.6398 211.729L13.6478 182.2C13.0072 160.024 13.9573 109.125 28.8725 92.1319C39.0614 80.5235 53.7662 80.8506 67.8536 79.1407L79.1444 77.5031L112 74.9857C113.924 74.8835 115.799 74.611 117.738 74.5684L158.017 74.0285L350.725 73.9993L380.858 74.5857L407.375 76.022C458.519 79.6746 486.071 86.624 496.684 141.25C500.962 163.273 502.273 187.024 500.648 209.412L498.061 239.012C497.578 244.097 495.677 256.914 496.688 261.654C495.313 263.035 495.154 267.774 495.392 269.587L495.48 269.976L495.209 270.221C494.426 277.11 495.084 284.232 494.808 291.158L492.795 336.875C492.42 344.535 492.293 352.133 491.24 359.75C489.059 375.538 482.401 404.409 473.644 417.994C462.237 432.111 446.35 432.293 429.834 432.26C407.305 432.215 386.605 427.909 364.375 425.018L321.375 421.631L271.066 421.534C267.674 421.61 264.251 422.315 260.798 422.372L234.366 422.436C230.114 422.442 225.787 422.279 221.546 422.577L76.0327 414.1C58.908 412.214 38.7615 406.14 27.6572 392.253C12.5014 373.298 13.8983 347.13 13.9037 324.273L14.0413 289.612C14.3133 282.327 14.5055 273.241 15.2745 266.317L15.3473 266.075C16.1493 263.259 16.1459 258.497 16.1673 255.375L16.9784 255.609C16.7381 259.019 16.6327 263.245 17.3929 266.575L17.0347 244.079L17.0328 220.226C16.6748 219.916 16.8651 220.023 16.4414 219.9L15.7447 219.38L15.6398 211.729ZM157.28 88.8388C149.385 89.9691 140.36 100.125 141.624 107.649L141.745 108.325C143.436 117.084 155.885 122.832 163.951 121.307L164.431 121.219C171.525 119.205 174.394 113.316 177.719 107.318C178.988 105.028 180.496 102.056 179.757 99.3906C177.578 91.5348 164.244 87.8553 157.28 88.8388ZM246.702 104.294C246.377 103.542 246.538 102.124 246.454 101.266C245.847 95.0353 244.003 92.2034 238.149 89.5297L236.974 89.17C233.177 88.1312 227.359 87.6738 223.497 88.6619L223.112 88.7542C219.133 89.7593 215.949 93.4274 213.978 96.8572C201.052 119.352 231.136 130.048 243.277 112.516C245.013 110.009 245.874 107.178 246.702 104.294Z"/>
	<path fill="#19B3FB" transform="scale(0.228516 0.239236)" d="M15.6398 211.729C16.4291 211.257 16.7315 210.335 17.239 209.436L17.0284 220.226C16.6748 219.916 16.8651 220.023 16.4414 219.9L15.7447 219.38L15.6398 211.729Z"/>
	<path fill="#0061FF" transform="scale(0.228516 0.239236)" d="M98.8914 93.1101C105.245 93.2715 112.153 94.9909 113.739 102.106L114.057 103.621C115.199 110.954 106.373 117.476 100.06 118.454C83.0716 119.756 77.4529 94.3261 98.8914 93.1101Z"/>
	<path fill="#0061FF" transform="scale(0.228516 0.239236)" d="M246.702 104.294C245.874 107.178 245.013 110.009 243.277 112.516C231.136 130.048 201.052 119.352 213.978 96.8572C215.949 93.4274 219.133 89.7593 223.112 88.7542L223.497 88.6619C227.359 87.6738 233.177 88.1312 236.974 89.17L238.149 89.5297C244.003 92.2034 245.847 95.0353 246.454 101.266C246.538 102.124 246.377 103.542 246.702 104.294ZM222.12 98.625C211.646 104.131 216.497 116.895 229.931 115.008C232.138 114.475 233.703 113.409 235.438 111.992C235.871 109.696 225.609 97.3926 222.12 98.625Z"/>
	<path fill="#0061FF" transform="scale(0.228516 0.239236)" d="M157.28 88.8388C164.244 87.8553 177.578 91.5348 179.757 99.3906C180.496 102.056 178.988 105.028 177.719 107.318C174.394 113.316 171.525 119.205 164.431 121.219L163.951 121.307C155.885 122.832 143.436 117.084 141.745 108.325L141.624 107.649C140.36 100.125 149.385 89.9691 157.28 88.8388ZM153.279 98.4694C141.425 105.634 150.696 116.452 161.087 116.074C163.787 115.423 165.25 114.227 166.733 111.875C167.578 106.123 157.414 100.289 153.279 98.4694Z"/>
	<path fill="#0061FF" transform="scale(0.228516 0.239236)" d="M281.081 186.334L281.372 186.356C290.619 187.163 284.898 202.069 283.419 207.24L251.763 307.293C248.783 316.642 246.184 326.285 242.482 335.375C239.857 341.822 236.682 348.547 228.634 347.61C222.632 345.013 221.771 340.151 223.731 334.127C226.747 324.86 231.412 316.003 235.125 306.996L259.285 238.727L271.225 200.538C272.952 194.946 274.273 187.5 281.081 186.334Z"/>
	<path fill="#0061FF" transform="scale(0.228516 0.239236)" d="M191.526 200.814L192.678 200.753C197.184 200.678 200.041 206.175 197.375 209.848C195.778 212.048 193.026 213.407 190.713 214.719L172.48 226.095C157.649 236.707 144.705 249.129 131.962 262.106C142.277 272.071 152.862 281.354 165.025 289.047C174.832 295.249 185.45 300.546 194.793 307.432C206.792 316.275 203.681 325.009 190.363 326.709C180.606 327.059 179.068 319.153 172.935 313.633C170.403 311.355 167.428 309.828 164.466 308.197L154.25 302.268C143.079 295.221 115.674 274.714 113.074 261.803C111.784 255.4 122.087 247.199 126.086 243.41C139.753 230.462 172.233 204.603 191.526 200.814Z"/>
	<path fill="#0061FF" transform="scale(0.228516 0.239236)" d="M320.288 201.31C337.446 200.297 377.744 233.355 389.982 244.412L396.298 250.301C408.112 261.663 402.795 266.539 392.789 276.377C382.282 286.71 370.364 296.159 357.93 304.067L349.035 309.253C346.813 310.448 344.395 311.556 342.39 313.093C337.358 316.948 335.665 323.363 329.291 325.755C323.232 327.358 313.469 324.46 313.274 317.12C313.101 310.635 323.136 305.208 327.83 302.263L343.014 292.919C357.262 283.958 370.425 273.646 382.223 261.614C381.817 260.827 380.83 260.022 380.204 259.378L373.912 253.247C362.089 242.159 349.862 231.144 336.011 222.631L327.61 217.748C324.18 215.827 314.13 211.103 315.876 205.711L316.218 204.728C316.972 202.843 318.507 202.006 320.288 201.31Z"/>
	<path fill="#0061FF" transform="scale(0.228516 0.239236)" d="M15.4896 211.729L13.6478 182.2C13.0072 160.024 13.9573 109.125 28.8725 92.1319C39.0614 80.5235 53.7662 80.8506 67.8536 79.1407L79.1444 77.5031L112 74.9857C113.924 74.8835 115.799 74.611 117.738 74.5684L158.017 74.0285L350.725 73.9993L380.858 74.5857L407.375 76.022C458.519 79.6746 486.071 86.624 496.684 141.25C500.962 163.273 502.273 187.024 500.648 209.412L498.061 239.012C497.578 244.097 495.677 256.914 496.688 261.654C495.313 263.035 495.154 267.774 495.392 269.587L495.48 269.976L495.209 270.221C494.426 277.11 495.084 284.232 494.808 291.158L492.795 336.875C492.42 344.535 492.293 352.133 491.24 359.75C489.059 375.538 482.401 404.409 473.644 417.994C462.237 432.111 446.35 432.293 429.834 432.26C407.305 432.215 386.605 427.909 364.375 425.018L321.375 421.631L271.066 421.534C267.674 421.61 264.251 422.315 260.798 422.372L234.366 422.436C230.114 422.442 225.787 422.279 221.546 422.577L76.0327 414.1C58.908 412.214 38.7615 406.14 27.6572 392.253C12.5014 373.298 13.8983 347.13 13.9037 324.273L14.0413 289.612C14.3133 282.327 14.5055 273.241 15.2745 266.317L15.3473 266.075C16.1493 263.259 16.1459 258.497 16.1673 255.375L16.9784 255.609C16.7381 259.019 16.6327 263.245 17.3929 266.575C17.6241 266.987 17.8831 279.759 17.9451 281.218L18.5241 302.487C18.5541 305.315 19.024 308.046 19.1543 310.847L20.178 343.045C21.1895 366.519 25.2071 387.845 48.6775 398.313C60.0127 403.369 71.6825 401.782 83.6694 400.616L128.393 396.79C130.556 396.677 132.71 396.356 134.875 396.307L149.176 396.116C151.136 396.045 153.061 395.618 155 395.543L287.701 395.535C290.047 395.585 292.311 396.063 294.625 396.16L310.75 396.367L342.3 399.765L391.583 407.229C407.775 409.1 440.116 411.441 450.61 399.327C464.12 383.732 467.713 350.352 468.714 330.625L469.377 308.058L474.864 222.713L474.833 173.472L473.123 142.489C472.614 142.115 470.4 142.201 469.629 142.158L456.514 141.954C454.324 141.889 452.171 141.492 450 141.419L405.078 141.405C402.211 141.446 399.4 141.967 396.545 141.985L282.007 141.975C279.51 141.94 277.09 141.444 274.62 141.399L255.606 141.271C252.896 141.142 250.356 140.525 247.622 140.503L146.276 140.456C143.601 140.416 140.991 139.908 138.339 139.847L120.315 139.716C116.643 139.593 113.043 139.009 109.388 138.769L53.8136 134.416L34.0831 134.341C31.3264 134.468 28.7361 135.008 25.9729 135.003C41.2832 127.377 61.2741 129.714 77.8067 129.738L134.223 129.703C137.46 129.68 140.541 129.33 143.75 129.129L162.5 128.587C164.801 128.501 167.077 128.122 169.375 128.061L217.34 127.937C219.781 127.886 222.151 127.432 224.567 127.326L260.503 125.948L260.084 125.499C254.042 122.003 249.77 117.437 248.016 110.536C247.546 108.686 247.535 106.337 246.838 104.608L246.702 104.294C246.377 103.542 246.538 102.124 246.454 101.266C245.847 95.0353 244.003 92.2034 238.149 89.5297L240 88.456C240.809 87.8905 240.827 87.6398 240.983 86.7355C237.004 86.8371 233.021 86.2941 229.017 86.2793L181.875 86.223C179.402 86.1863 176.96 85.6237 174.464 85.5715L76.2798 86.1988C52.6309 86.8944 33.9412 85.7259 25.9923 111.5C23.0257 121.119 22.2913 131.057 21.1634 141L18.3288 174.125C18.2244 176.294 17.8793 178.388 17.8601 180.583L17.8098 198C17.7521 199.326 17.4466 200.686 17.3521 202.029L17.163 209.436C16.7315 210.335 16.4291 211.257 15.4896 211.729Z"/>
	<path fill="#60EFFF" transform="scale(0.228516 0.239236)" d="M240.983 86.7355L257.12 87.108C259.568 87.24 261.941 87.7757 264.428 87.8156L307.357 88.3124L398.222 87.8721C416.314 87.8726 452.688 88.7801 465.599 101.457C470.236 106.01 471.169 113.351 471.721 119.525L472.373 129.972C465.792 129.134 458.991 129.03 452.365 128.676L432.125 127.861C430.002 127.748 427.943 127.342 425.789 127.287L404.4 127.195C401.612 127.157 398.88 126.644 396.082 126.601L277.231 126.057C271.745 126.05 265.952 126.427 260.503 125.937L260.084 125.499C254.042 122.003 249.77 117.437 248.016 110.536C247.546 108.686 247.535 106.337 246.838 104.608L246.702 104.294C246.377 103.542 246.538 102.124 246.454 101.266C245.847 95.0353 244.003 92.2034 238.149 89.5297L240 88.456C240.809 87.8905 240.827 87.6398 240.983 86.7355Z"/>
	<path fill="#0061FF" transform="scale(0.228516 0.239236)" d="M444.68 98.5239L445.576 99.0728C447.703 100.4 453.971 106.118 453.625 108.93C450.942 110.347 445.975 100.986 444.68 98.5239Z"/>
</svg>
