<?xml version="1.0" encoding="utf-8" ?>
<svg xmlns="http://www.w3.org/2000/svg" width="159" height="159">
  <path fill="#5F0F40" transform="scale(0.311183 0.311183)"
        d="M475.114 352.073L475.811 351L476.188 352.312C475.954 352.78 476.14 353.168 476 353.625L475.812 354.062C476.253 354.944 475.75 356.951 475.75 358L476 358.375C475.715 359.04 475.539 360.401 475.434 360.926L475.375 361.25C475.296 361.619 475.22 361.812 475.297 362.195L475.5 363C475.042 363.558 474.72 364.451 474.492 365.133L474.312 366.438C474.762 366.006 475.056 365.712 475.259 365.109L475.377 364.75C475.5 364.545 475.691 364.385 475.805 364.176L476.001 363.812C476.223 363.447 476.4 363.208 476.574 362.801L476.939 362C477.286 361.421 477.448 360.781 477.791 360.23L477.877 359.625C478.192 359.247 478.316 359.009 478.501 358.562L478.627 358.25C478.912 357.673 479.024 357.121 479.257 356.539L479.377 356.25C479.428 356.1 479.522 355.659 479.627 355.5L479.877 354.75C480.187 354.286 480.204 353.885 480.376 353.369L481.375 350.75C481.378 350.237 481.464 349.856 481.626 349.369L482.125 348.25C482.079 347.369 482.517 346.353 482.751 345.501L482.877 345.125C483.092 344.336 483.285 343.541 483.501 342.751L488.377 323C488.774 322.599 488.59 322.061 488.939 321.5L488.877 321C490.012 319.854 490.374 314.907 490.377 313C491.314 312.055 491.624 304.473 491.627 302.25C492.405 301.465 492.625 294.236 492.627 292.25C493.39 291.102 493.375 286.9 493.377 285.25L493.377 284.5C494.028 283.522 494.74 272.5 494.661 271.531L494.627 271.25C495.107 270.765 494.877 268.988 494.877 268.25L495.125 268C495.116 267.119 495.353 265.815 495.196 265.016L495.127 264.75C495.607 264.265 495.377 262.488 495.377 261.75L495.627 260.625C495.879 257.907 494.556 252.612 495.788 250.627L496.127 248.25C496.582 247.791 496.802 241.913 496.696 241.188L496.627 240.75C497.335 240.037 496.803 237.574 496.905 236.531L496.939 236.25C497 234.399 497.194 232.672 497.189 230.75L497.25 229.125C497.485 228.252 497.399 227.652 497.439 226.75L497.439 221.5C498.166 220.524 497.613 212.858 497.941 211C498.581 207.369 498.184 203.086 498.192 199.359L498.085 174.608C498.051 172.755 497.474 170.661 497.657 168.797L497.583 163.5C497.205 161.217 497.654 152.755 497.188 151.062C496.631 149.041 497.504 146.511 496.875 144.623L496.689 144.25C496.971 140.98 496.22 135.839 496.062 132.312L495.627 133.375L495.627 131.75C496.244 130.822 495.763 129.758 496.442 128.702C497.223 135.92 497.108 143.262 497.481 150.5L498.108 228.672L493.547 290.125C491.845 305.423 490.964 315.057 487.316 329.994C479.456 362.181 478.579 375.988 442.605 383.497L417.75 387.754L350.737 394.796L319.742 396.736C319.578 397.815 320.2 399.397 320.365 400.516C321.846 410.608 328.74 419.861 335.204 427.333C343.134 436.498 348.024 438.407 359.305 443.22C361.654 444.223 364.145 445.072 366.32 446.426L366.664 446.637C374.607 451.633 370.977 462.617 360.141 464.581C355.598 465.405 350.791 465.511 346.183 465.905L278.375 470.317L234.5 471.939C232.44 472.071 230.42 472.45 228.342 472.515L171.709 472.601C166.256 472.59 158.285 473.549 154.431 468.708L154.071 468.331C146.455 459.91 163.093 452.212 168.051 449.282C179.492 442.523 190.653 436.598 200.642 427.755C206.221 421.275 210.909 414.544 214.817 406.914C212.861 407.14 210.93 407.506 208.963 407.621L189.136 407.863C187.54 407.913 185.965 408.192 184.375 408.23L125.181 407.632L76.25 404.075C63.9267 402.84 51.5356 401.268 39.5 398.271C24.8078 394.612 23.5296 379.502 21.9548 366.612L19.2699 326.925L19.5096 327.377C20.1364 328.925 19.329 331.572 20.0462 332.75L20.0162 333.219C19.8213 336.745 20.0919 340.866 20.6225 344.375L20.5613 345.25C20.4931 346.935 20.5939 349.596 21.0613 351.25L21.0613 352C21.089 353.331 23.0618 375.658 24.0613 377L24.1128 377.473C24.2246 378.459 24.5267 379.348 24.6875 380.312L25.3204 382.543C25.5354 383.403 25.1375 381.888 25.5613 383L25.6088 383.363C25.7329 384.162 26.1745 384.853 26.3125 385.688L27.125 387.25C27.2209 387.697 27.5204 388.119 27.75 388.5L27.9844 388.984C28.1954 389.423 28.5342 389.727 28.75 390.125L28.875 390.5C29.0244 390.769 29.2066 390.939 29.375 391.25L29.8775 391.847C32.0966 395.406 37.0972 397.292 40.9988 398.001L41.2727 398.118C43.1153 398.85 45.2954 398.716 47.125 399.5L47.4766 399.431C48.4698 399.269 49.4528 400.022 50.625 399.877L50.8789 400.06C51.3849 400.361 51.6613 400.214 52.1875 400.312L52.5 400.439C53.2852 400.606 54.1088 400.589 54.9375 400.812L55.375 401C56.3928 400.834 57.1856 401.291 58.25 401.189L58.9766 401.435C59.4873 401.352 59.2549 401.363 59.75 401.439L60.5 401.75C61.0583 401.771 61.4684 401.835 62 401.939L62.75 401.939C64.1181 401.959 68.5979 402.56 69.625 403L69.8699 402.967C70.8711 402.84 71.2032 403.064 72.125 403.25L73 403.189C73.6345 403.167 74.2226 403.148 74.75 403.5L75.2031 403.435C75.9137 403.339 76.4017 403.303 77 403.75L77.2852 403.712C78.0625 403.648 78.9081 403.693 79.625 404L79.9336 403.927C80.5821 403.821 84.1469 404.262 84.625 404.5L85.1289 404.427C86.1419 404.295 86.9899 404.739 88 404.689L88.625 404.75C89.302 404.8 89.7284 404.87 90.375 405L91.25 404.939C92.8442 404.85 94.4822 405.26 96.125 405.25L96.5586 405.215C97.2827 405.165 97.4795 405.37 98.125 405.5L102.875 405.682C103.953 405.682 108.001 405.751 108.75 406.25L111.257 406.216C115.157 406.598 119.109 406.165 123.022 406.948C124.658 407.275 126.403 406.84 128.125 407.226L133.578 407.177C136.358 407.177 143.321 407.232 145.979 407.698C149.485 408.313 153.459 407.365 157 407.689L164.891 407.631C164.433 407.565 164.612 407.611 164.25 407.481L162.562 407.523L162.127 406.875L163.875 406.627L165 407L165.375 406.5C165.028 405.977 165.047 405.896 164.5 405.623L164.127 404.5C164.127 403.647 164.662 403.051 164.939 402.25C164.51 401.964 164.423 402.011 164.251 401.499L164.047 401.35C163.197 400.711 162.895 399.563 162.125 399.123L161.751 398.999C161.614 398.457 161.579 398.465 161.127 398.125L161.625 397.123C160.949 397.201 160.689 396.715 160.312 397.188L160.375 396.25C159.565 396.397 157.759 396.411 157.25 396.75L153.845 397.061C151.655 396.704 146.799 397.781 145.062 396.424C148.479 396.345 151.986 396.592 155.375 396.261L156.443 396.234C157.407 396.184 161.444 395.599 162.625 395.429C165.964 394.946 177.568 396.077 179.75 394.627L185.75 394.127C186.707 394.127 196.46 393.652 197.25 393.127C197.995 393.13 216.081 392.322 216.75 391.877L219.5 391.939C220.046 391.978 220.865 392.008 221.25 391.627L221.547 391.658C223.577 391.824 235.134 391.259 236.75 390.377C237.388 390.029 237.829 390.155 238.495 390.26L238.611 390.909C240.41 391.57 243.803 391.135 245.782 391.136L265.579 390.952L311.918 388.176L346.239 387.171L421.749 379.461L439.556 376.63C459.402 373.12 468.118 371.274 475.114 352.073Z"/>
  <path fill="#9A031E" transform="scale(0.311183 0.311183)"
        d="M257.838 423.03C259.338 422.469 262.629 422.155 263.979 422.796L264.573 423.096C267.368 424.54 270.14 429.104 268.29 432.191C265.505 436.84 255.922 437.784 250.954 438.866L207.014 451.672C199.923 454.369 193.391 458.245 186.063 460.359L177.25 461.625C177.689 460.714 178.399 460.237 179.097 459.539L185 453.627C186.423 452.501 187.786 451.284 189.239 450.193L189.501 450.001C194.659 445.893 197.133 444.153 201.375 438.627L201.75 438.125C204.082 434.487 207.981 430.077 212.145 428.614L213.251 428.251C215.071 427.789 216.744 427.09 218.625 426.75L219.25 426.627C220.822 425.882 223.908 425.127 225.625 425.127L225.875 424.877C227.1 424.913 228.208 424.426 229.396 424.384L229.625 424.377C230.324 423.678 235.515 423.627 236.75 423.627C238.459 422.488 257.596 422.798 257.838 423.03Z"/>
  <defs>
    <linearGradient id="gradient_0" gradientUnits="userSpaceOnUse" x1="12.0867" y1="83.934601" x2="484.005"
                    y2="349.32101">
      <stop offset="0" stop-color="#A0021D"/>
      <stop offset="1" stop-color="#4F1548"/>
    </linearGradient>
  </defs>
  <path fill="url(#gradient_0)" transform="scale(0.311183 0.311183)"
        d="M19.3156 326.925L15.1439 204.756C14.917 202.168 15.0547 199.481 15.0526 196.878L15.1287 155.885L19.6005 86C22.0506 60.3904 21.689 57.5419 45.8341 53.0803L113.764 43.1565L184.12 37.8233L266.343 37.2578L372.382 37.7539L405.909 37.1537C408.136 37.0923 410.309 36.6011 412.5 36.5369L430.673 36.4953C448.627 36.5368 468.054 37.1512 481.875 50.35C493.029 61.0022 494.366 73.6192 495.007 87.75L496.374 128.702C495.763 129.758 496.244 130.822 495.627 131.75L495.627 133.375L496.062 132.312C496.22 135.839 496.971 140.98 496.689 144.25L496.875 144.623C497.504 146.511 496.631 149.041 497.188 151.062C497.654 152.755 497.205 161.217 497.583 163.5L497.657 168.797C497.474 170.661 498.051 172.755 498.085 174.608L498.192 199.359C498.184 203.086 498.581 207.369 497.941 211C497.613 212.858 498.166 220.524 497.439 221.5L497.439 226.75C497.399 227.652 497.485 228.252 497.25 229.125L497.189 230.75C497.194 232.672 497 234.399 496.939 236.25L496.905 236.531C496.803 237.574 497.335 240.037 496.627 240.75L496.696 241.188C496.802 241.913 496.582 247.791 496.127 248.25L495.788 250.627C494.556 252.612 495.879 257.907 495.627 260.625L495.377 261.75C495.377 262.488 495.607 264.265 495.127 264.75L495.196 265.016C495.353 265.815 495.116 267.119 495.125 268L494.877 268.25C494.877 268.988 495.107 270.765 494.627 271.25L494.661 271.531C494.74 272.5 494.028 283.522 493.377 284.5L493.377 285.25C493.375 286.9 493.39 291.102 492.627 292.25C492.625 294.236 492.405 301.465 491.627 302.25C491.624 304.473 491.314 312.055 490.377 313C490.374 314.907 490.012 319.854 488.877 321L488.939 321.5C488.59 322.061 488.774 322.599 488.377 323L483.501 342.751C483.285 343.541 483.092 344.336 482.877 345.125L482.751 345.501C482.517 346.353 482.079 347.369 482.125 348.25L481.626 349.369C481.464 349.856 481.378 350.237 481.375 350.75L480.376 353.369C480.204 353.885 480.187 354.286 479.877 354.75L479.627 355.5C479.522 355.659 479.428 356.1 479.377 356.25L479.257 356.539C479.024 357.121 478.912 357.673 478.627 358.25L478.501 358.562C478.316 359.009 478.192 359.247 477.877 359.625L477.791 360.23C477.448 360.781 477.286 361.421 476.939 362L476.574 362.801C476.4 363.208 476.223 363.447 476.001 363.812L475.805 364.176C475.691 364.385 475.5 364.545 475.377 364.75L475.259 365.109C475.056 365.712 474.762 366.006 474.312 366.438L474.492 365.133C474.72 364.451 475.042 363.558 475.5 363L475.297 362.195C475.22 361.812 475.296 361.619 475.375 361.25L475.434 360.926C475.539 360.401 475.715 359.04 476 358.375L475.75 358C475.75 356.951 476.253 354.944 475.812 354.062L476 353.625C476.14 353.168 475.954 352.78 476.188 352.312L475.811 351L475.114 352.073C468.118 371.274 459.402 373.12 439.556 376.63L421.749 379.461L346.239 387.171L311.918 388.176L265.579 390.952L245.782 391.136C243.803 391.135 240.41 391.57 238.611 390.909L238.495 390.289C237.829 390.155 237.388 390.029 236.75 390.377C235.134 391.259 223.577 391.824 221.547 391.658L221.25 391.627C220.865 392.008 220.046 391.978 219.5 391.939L216.75 391.877C216.081 392.322 197.995 393.13 197.25 393.127C196.46 393.652 186.707 394.127 185.75 394.127L179.75 394.627C177.568 396.077 165.964 394.946 162.625 395.429C161.444 395.599 157.407 396.184 156.443 396.234L155.375 396.261C151.986 396.592 148.479 396.345 145.062 396.424C146.799 397.781 151.655 396.704 153.845 397.061L157.25 396.75C157.759 396.411 159.565 396.397 160.375 396.25L160.312 397.188C160.689 396.715 160.949 397.201 161.625 397.123L161.127 398.125C161.579 398.465 161.614 398.457 161.751 398.999L162.125 399.123C162.895 399.563 163.197 400.711 164.047 401.35L164.251 401.499C164.423 402.011 164.51 401.964 164.939 402.25C164.662 403.051 164.127 403.647 164.127 404.5L164.5 405.623C165.047 405.896 165.028 405.977 165.375 406.5L165 407L163.875 406.627L162.127 406.875L162.562 407.523L164.25 407.481C164.612 407.611 164.433 407.565 164.891 407.631L157 407.689C153.459 407.365 149.485 408.313 145.979 407.698C143.321 407.232 136.358 407.177 133.578 407.177L128.125 407.226C126.403 406.84 124.658 407.275 123.022 406.948C119.109 406.165 115.157 406.598 111.257 406.216L108.75 406.25C108.001 405.751 103.953 405.682 102.875 405.682L98.125 405.5C97.4795 405.37 97.2827 405.165 96.5586 405.215L96.125 405.25C94.4822 405.26 92.8442 404.85 91.25 404.939L90.375 405C89.7284 404.87 89.302 404.8 88.625 404.75L88 404.689C86.9899 404.739 86.1419 404.295 85.1289 404.427L84.625 404.5C84.1469 404.262 80.5821 403.821 79.9336 403.927L79.625 404C78.9081 403.693 78.0625 403.648 77.2852 403.712L77 403.75C76.4017 403.303 75.9137 403.339 75.2031 403.435L74.75 403.5C74.2226 403.148 73.6345 403.167 73 403.189L72.125 403.25C71.2032 403.064 70.8711 402.84 69.8699 402.967L69.625 403C68.5979 402.56 64.1181 401.959 62.75 401.939L62 401.939C61.4684 401.835 61.0583 401.771 60.5 401.75L59.75 401.439C59.2549 401.363 59.4873 401.352 58.9766 401.435L58.25 401.189C57.1856 401.291 56.3928 400.834 55.375 401L54.9375 400.812C54.1088 400.589 53.2852 400.606 52.5 400.439L52.1875 400.312C51.6613 400.214 51.3849 400.361 50.8789 400.06L50.625 399.877C49.4528 400.022 48.4698 399.269 47.4766 399.431L47.125 399.5C45.2954 398.716 43.1153 398.85 41.2727 398.118L40.9988 398.001C37.0972 397.292 32.0966 395.406 29.8775 391.847L29.375 391.25C29.2066 390.939 29.0244 390.769 28.875 390.5L28.75 390.125C28.5342 389.727 28.1954 389.423 27.9844 388.984L27.75 388.5C27.5204 388.119 27.2209 387.697 27.125 387.25L26.3125 385.688C26.1745 384.853 25.7329 384.162 25.6088 383.363L25.5613 383C25.1375 381.888 25.5354 383.403 25.3204 382.543L24.6875 380.312C24.5267 379.348 24.2246 378.459 24.1128 377.473L24.0613 377C23.0618 375.658 21.089 353.331 21.0613 352L21.0613 351.25C20.5939 349.596 20.4931 346.935 20.5613 345.25L20.6225 344.375C20.0919 340.866 19.8213 336.745 20.0162 333.219L20.0462 332.75C19.329 331.572 20.1364 328.925 19.5096 327.377L19.3156 326.925ZM124.037 340.355C115.262 340.419 106.477 341.173 97.7395 341.937L75.375 343.964C70.0872 344.505 64.3448 344.538 59.1732 345.811C51.8091 347.623 50.9151 356.036 60.5 357.28L67.4375 357.512L117.454 353.39C122.077 352.967 126.92 353.447 131.494 352.649C138.367 351.449 141.154 345.787 135.52 341.453C132.974 339.494 127.122 340.334 124.037 340.355ZM158.193 336.778C147.095 340.167 145.101 351.679 158.166 354.132C162.606 354.01 165.634 351.265 166.318 346.875L166.378 346.51C166.963 342.54 162.495 336.196 158.193 336.778Z"/>
  <path fill="#0F4C5C" transform="scale(0.311183 0.311183)"
        d="M284.549 326.222L482.265 320.54L475.114 352.073C468.118 371.274 459.402 373.12 439.556 376.63L421.749 379.461L346.239 387.171L311.918 388.176L265.579 390.952L245.782 391.136C243.803 391.135 240.41 391.57 238.611 390.909L238.495 390.289C243.229 386.423 231.839 369.541 230.748 364.611C231.706 364.318 232.642 364.205 233.635 364.086L234.147 358.884C234.618 356.413 236.085 348.114 237.875 346.749C240.005 345.123 272.339 346.224 276.321 346.586C275.481 346.351 272.244 345.882 271.203 345.916L266.938 345.911C257.871 345.022 248.933 345.685 239.875 345.571C240.274 344.801 240.522 343.733 240.802 342.888L241.113 342.086C241.2 341.348 241.47 340.699 241.564 339.929L241.605 339.505C242.601 333.812 246.485 328.627 252.331 327.234L253.425 327.004C253.777 326.782 253.819 326.708 254.262 326.643L254.808 326.673C256.221 326.338 256.843 326.635 258.137 326.63L258.615 326.623C258.139 326.951 257.651 327.024 257.125 327.25L258.5 327.372C259.155 327.232 259.702 327.102 260.375 327.043L284.549 326.222Z"/>
  <path fill="#9A031E" transform="scale(0.311183 0.311183)"
        d="M234.147 358.884C234.618 356.413 236.085 348.114 237.875 346.749C240.005 345.123 272.339 346.224 276.321 346.586C282.781 347.576 289.052 349.41 287.066 358.25L286.979 358.647C284.896 367.697 273.503 364.742 266.971 364.72L248.721 364.73C243.573 364.738 238.73 364.816 233.635 364.086L234.147 358.884Z"/>
  <path fill="#FB8B24" transform="scale(0.311183 0.311183)"
        d="M145.302 325.504C143.034 325.275 140.486 325.322 138.173 325.164L82.8976 320.616L59.7303 319.519L27.5209 319.49C27.2633 319.043 27.3667 318.192 27.3557 317.659L27.1349 312.421C26.5916 305.715 26.8479 298.99 26.6173 292.272L25.3995 247.168C25.3347 245.229 24.932 243.356 24.8449 241.43L23.5121 206.625L23.5695 155.162L28.1688 85.1551C30.1304 61.3148 29.6845 65.1909 52.8314 60.6324L106.109 52.6767L159.5 47.7072L201.021 45.7725C202.527 45.69 204.006 45.3832 205.5 45.3146L259.548 45.931C253.836 47.017 248.235 48.5447 242.604 49.8701L174.057 68.3006C136.928 77.1262 118.144 73.0561 84.9275 96.722C79.856 100.335 78.0893 101.742 77.5297 108.148C68.4492 126.937 83.0357 143.886 97.7277 153.952C93.2194 158.655 90.202 164.334 87.3149 170.128C72.7982 199.261 67.0324 226.405 92.5388 250.693C106.606 264.089 128.037 270.533 147.25 271.846L156.327 272.177C157.345 272.218 159.189 272.175 160.049 272.666C160.397 273.515 162.093 274.044 162.935 274.382L204.25 290.521L267.155 312.152C278.159 315.56 288.183 318.67 299.549 320.436C295.734 321.596 291.575 321.567 287.621 321.766L278.899 322.454C274.745 322.603 270.514 322.401 266.378 322.718L192.25 325.59C190.387 325.681 188.568 326.063 186.698 326.122L145.302 325.504Z"/>
  <path fill="white" transform="scale(0.311183 0.311183)"
        d="M259.548 46.0881C270.695 45.4741 281.818 46.4576 292.959 46.4869L386.125 45.9011C387.922 45.7899 389.689 45.4628 391.503 45.385L416.971 45.2294C445.235 45.1743 484.777 42.7201 486.398 81.2306L486.585 110.074L488.917 150.125C489.063 151.95 489.427 153.717 489.508 155.57L489.599 225.758C489.532 227.998 489.004 230.241 488.892 232.5L487.119 265.747L482.643 312.039L299.549 320.454C288.183 318.67 278.159 315.56 267.155 312.152L204.25 290.521L162.935 274.382C162.093 274.044 160.397 273.515 160.049 272.712C159.189 272.175 157.345 272.218 156.327 272.177L147.25 271.846C128.037 270.533 106.606 264.089 92.5388 250.693C67.0324 226.405 72.7982 199.261 87.3149 170.128C90.202 164.334 93.2194 158.655 97.7277 153.952C83.0357 143.886 68.4492 126.937 77.5297 108.148C78.0893 101.742 79.856 100.335 84.9275 96.722C118.144 73.0561 136.928 77.1262 174.057 68.3006L242.604 49.8701C248.235 48.5447 253.836 47.017 259.548 46.0881Z"/>
  <path fill="#5F0F40" transform="scale(0.311183 0.311183)"
        d="M365.161 224.589L404.967 224.653C407.896 224.718 410.807 225.146 413.728 225.331L443.829 226.988C445.834 227.097 447.936 227.053 449.916 227.351C455.84 228.244 455.481 236.541 449.807 236.514C446.765 236.5 443.66 236.056 440.629 235.783L393.59 233.193L312.045 235.66C310.022 235.8 307.235 236.26 305.625 234.787C303.846 233.159 302.588 229.298 304.947 227.521C306.325 226.484 316.003 226.678 318.309 226.563L341.637 225.333C344.136 225.194 346.59 224.781 349.093 224.693L365.161 224.589Z"/>
  <path fill="#5F0F40" transform="scale(0.311183 0.311183)"
        d="M445.154 122.561C452.593 121.904 453.163 130.377 447.123 131.184C444.088 131.59 440.549 131.256 437.466 131.258L312.475 131.665C306.883 131.672 301.095 131.362 295.558 132.192C284.583 132.408 288.057 123.828 291.875 123.486C296.63 123.059 301.662 123.369 306.441 123.365L445.154 122.561Z"/>
  <path fill="#5F0F40" transform="scale(0.311183 0.311183)"
        d="M371.001 173.046L456.448 173.047C460.1 173.047 463.896 172.851 467.532 173.125C475.111 173.695 474.048 181.982 468 182.326C461.843 182.677 455.912 181.566 449.85 181.502L398.504 181.469L299.829 182.363C296.94 182.417 293.5 177.72 298.169 174.287L371.001 173.046Z"/>
  <defs>
    <linearGradient id="gradient_1" gradientUnits="userSpaceOnUse" x1="119.726" y1="267.01001" x2="220.00999"
                    y2="77.793198">
      <stop offset="0" stop-color="#A00019"/>
      <stop offset="1" stop-color="#511350"/>
    </linearGradient>
  </defs>
  <path fill="url(#gradient_1)" transform="scale(0.311183 0.311183)"
        d="M77.5297 108.148C97.0089 95.1188 121.275 92.9685 135.06 114.625L137.233 118.458C138.623 118.33 140.173 117.614 141.501 117.155L149.71 114.353C165.886 109.123 182.07 108.002 198.603 112.566L206.622 115.022C207.767 115.406 209.747 116.376 210.863 116.336C214.172 107.881 219.905 99.4311 228.44 95.6544C235.218 92.6549 245.897 92.1703 252.875 94.88C276.69 104.127 268.264 139.42 247.876 148.113L245.981 148.858C272.889 196.593 287.325 245.353 218.625 266.009C205.918 269.829 192.754 271.956 179.51 272.653L160.049 272.758C159.189 272.175 157.345 272.218 156.327 272.177L147.25 271.846C128.037 270.533 106.606 264.089 92.5388 250.693C67.0324 226.405 72.7982 199.261 87.3149 170.128C90.202 164.334 93.2194 158.655 97.7277 153.952C83.0357 143.886 68.4492 126.937 77.5297 108.148Z"/>
  <path fill="white" transform="scale(0.311183 0.311183)"
        d="M159.793 212.339C161.218 211.857 161.752 212.653 162.555 213.798C163.888 219.406 168.871 226.461 175.02 227.55L176.023 235.138C164.893 233.219 161.372 230.447 153.208 223.428C153.218 222.685 153.283 222.214 153.617 221.545L153.769 221.25C154.004 220.781 159.278 212.996 159.793 212.339Z"/>
  <path fill="#5F0F40" transform="scale(0.311183 0.311183)"
        d="M232.019 103.534C236.7 103.135 251.29 104.829 251.059 111.125L250.486 111.527C247.517 113.204 242.032 112.051 238.998 111.1L236.398 110.242C235.839 110.044 234.981 109.835 234.728 109.292L235.058 109.044C229.215 108.976 225.712 109.991 220.966 113.73C218.578 115.611 228.565 121.956 230.898 123.949C234.672 127.129 238.844 130.664 241.026 135.164C238.363 133.795 236.716 132.129 234.428 130.301L228.691 126.125C224.482 123.102 219.776 120.995 216.516 116.849C220.816 109.964 223.861 105.426 232.019 103.534Z"/>
  <path fill="white" transform="scale(0.311183 0.311183)"
        d="M140.235 170.296C153.786 169.082 159.268 191.075 154.256 198C150.324 203.431 139.671 202.975 141.25 197.197C144.722 184.514 127.436 192.939 122.125 190.27L122.049 190.029C120.774 183.551 134.033 172.03 140.235 170.296Z"/>
  <defs>
    <linearGradient id="gradient_2" gradientUnits="userSpaceOnUse" x1="128.571" y1="209.877" x2="177.658" y2="248.633">
      <stop offset="0" stop-color="#FFBF66"/>
      <stop offset="1" stop-color="#FEFFFF"/>
    </linearGradient>
  </defs>
  <path fill="url(#gradient_2)" transform="scale(0.311183 0.311183)"
        d="M157.945 253.419C141.684 247.948 133.643 228.845 122.971 217.478L122.644 217.133C134.171 219.125 146.689 219.445 156.004 211.084C157.453 211.222 158.442 211.979 159.793 212.339C159.278 212.996 154.004 220.781 153.769 221.25L153.617 221.545C153.283 222.214 153.218 222.685 153.208 223.428C147.362 231.196 152.836 238.172 161.097 240.894L161.526 241.036C166.755 242.734 171.992 240.969 176.77 242.064C176.759 245.659 177.293 249.892 174.625 252.731C170.803 256.799 162.377 256.092 157.945 253.419Z"/>
  <path fill="white" transform="scale(0.311183 0.311183)"
        d="M195.802 202.045C204.058 211.383 218.795 222.489 231.93 216.609L221.259 233.672C215.179 242.702 208.412 251.524 197.229 254.15L194.044 254.743C187.7 254.616 185.437 248.264 184.398 243.036C186.956 243.091 189.715 243.268 192.244 242.869L192.625 242.805C199.4 241.763 214.577 232.813 210.625 225.157C206.844 217.833 198.688 236.894 187.202 235.062C185.263 234.753 185.423 229.587 183.2 226.579C191.248 223.789 201.37 215.204 195.512 206.17C195.678 204.527 194.191 202.98 195.802 202.045Z"/>
  <path fill="#FB8B24" transform="scale(0.311183 0.311183)"
        d="M158.531 207.98C163.512 200.492 164.73 193.222 162.946 184.375C156.077 150.305 121.497 159.313 111.901 189.829L109.821 197.665C108.988 201.08 108.504 200.229 105.627 202.252C98.487 207.272 92.0145 213.096 84.7016 217.879L84.4805 217.871C82.7215 212.493 83.4219 207.214 84.5792 201.76C95.1281 152.045 154.68 98.4973 206.336 124.908C219.053 131.411 230.444 141.428 238.577 153.177C251.879 172.395 267.154 209.444 256.072 230.854C246.771 248.821 224.28 257.248 204.987 257.649C201.392 257.723 197.198 257.828 194 255.97L194.044 254.743L197.229 254.15C208.412 251.524 215.179 242.702 221.259 233.672L231.93 216.609C218.795 222.489 204.058 211.383 195.802 202.045C194.191 202.98 195.678 204.527 195.512 206.17C201.37 215.204 191.248 223.789 183.2 226.579C180.497 226.692 177.659 227.617 175.02 227.55C168.871 226.461 163.888 219.406 162.555 213.798C161.752 212.653 161.218 211.857 159.793 212.339C158.442 211.979 157.453 211.222 156.004 211.084L158.531 207.98Z"/>
  <path fill="#FFB65A" transform="scale(0.311183 0.311183)"
        d="M158.531 207.98C159.277 209.107 161.13 210.686 162.25 211.377L162.796 211.273L162.555 213.798C161.752 212.653 161.218 211.857 159.793 212.339C158.442 211.979 157.453 211.222 156.004 211.084L158.531 207.98Z"/>
  <path fill="#5F0F40" transform="scale(0.311183 0.311183)"
        d="M162.796 211.273L162.891 211.245C166.231 205.023 174.941 203.761 181.33 203.531L189.121 203.459C192.227 203.548 193.312 204.121 195.512 206.17C201.37 215.204 191.248 223.789 183.2 226.579C180.497 226.692 177.659 227.617 175.02 227.55C168.871 226.461 163.888 219.406 162.555 213.798L162.796 211.273Z"/>
  <path fill="#9A031E" transform="scale(0.311183 0.311183)"
        d="M195.802 202.045C194.435 199.965 193.042 197.932 192.074 195.625C184.34 177.191 197.949 153.567 220.107 163.701C236.127 171.028 258.086 202.132 234.75 215.034C234.189 215.344 232.216 216.147 231.93 216.609C218.795 222.489 204.058 211.383 195.802 202.045Z"/>
  <path fill="white" transform="scale(0.311183 0.311183)"
        d="M205.972 197.431C202.076 195.812 199.442 193.844 198.225 189.75L198.104 189.357C195.66 180.842 200.543 171.3 209.186 169.084C219.039 166.559 231.518 183.154 233.708 192.086L233.838 192.656C228.264 196.941 219.263 200.185 212.324 199.3C212.354 196.622 212.023 195.234 210.56 192.979C207.584 193.814 206.686 194.504 205.972 197.431Z"/>
</svg>
